<?xml version="1.0" encoding="UTF-8" standalone="no"?>
<!-- Created with Inkscape (http://www.inkscape.org/) -->

<svg
   width="74.83493mm"
   height="29.584724mm"
   viewBox="0 0 74.83493 29.584724"
   version="1.1"
   id="svg1"
   inkscape:version="1.3.1 (91b66b0783, 2023-11-16)"
   sodipodi:docname="YLab edge 2.svg"
   xmlns:inkscape="http://www.inkscape.org/namespaces/inkscape"
   xmlns:sodipodi="http://sodipodi.sourceforge.net/DTD/sodipodi-0.dtd"
   xmlns="http://www.w3.org/2000/svg"
   xmlns:svg="http://www.w3.org/2000/svg">
  <sodipodi:namedview
     id="namedview1"
     pagecolor="#ffffff"
     bordercolor="#666666"
     borderopacity="1.0"
     inkscape:showpageshadow="2"
     inkscape:pageopacity="0.0"
     inkscape:pagecheckerboard="0"
     inkscape:deskcolor="#d1d1d1"
     inkscape:document-units="mm"
     inkscape:zoom="4.265404"
     inkscape:cx="151.56829"
     inkscape:cy="52.163875"
     inkscape:window-width="2463"
     inkscape:window-height="1411"
     inkscape:window-x="1491"
     inkscape:window-y="1759"
     inkscape:window-maximized="1"
     inkscape:current-layer="g7" />
  <defs
     id="defs1">
    <rect
       x="-35.4011"
       y="10.081108"
       width="341.81992"
       height="194.58884"
       id="rect6" />
    <rect
       x="46.185543"
       y="40.55888"
       width="191.07217"
       height="73.381088"
       id="rect1" />
  </defs>
  <g
     inkscape:label="Layer 1"
     inkscape:groupmode="layer"
     id="layer1"
     transform="translate(1.2527146,-9.1859578)">
    <text
       xml:space="preserve"
       transform="scale(0.26458333)"
       id="text1"
       style="font-size:39.9999px;line-height:1.25;font-family:Chicago;-inkscape-font-specification:'Chicago, Normal';white-space:pre;shape-inside:url(#rect1);display:inline"><tspan
         x="46.185547"
         y="183.69336"
         id="tspan4"><tspan
           dx="0 29.130222 25.156261 28.000015"
           style="font-size:74.6667px;font-family:'Agency FB';-inkscape-font-specification:'Agency FB, Normal'"
           id="tspan3">YLab</tspan></tspan></text>
    <g
       id="g6"
       transform="matrix(0.97114515,0,0,0.97114515,3.9906499,1.6768169)">
      <g
         id="g7"
         transform="matrix(0.96227768,0,0,0.96227768,2.7031546,1.4594886)">
        <path
           d="m 25.525547,22.900259 h 14.71062 v 0.668665 q 0,2.674658 -4.011987,2.674658 H 25.525547 q -4.011988,0 -4.011988,-2.674658 V 8.8583033 q 0,-2.6746582 4.011988,-2.6746582 z m 27.950179,-5.349316 v -1.33733 q 0,-0.668664 -0.668665,-0.668664 H 42.777093 v -0.668665 q 0,-2.674658 4.011987,-2.674658 h 6.686646 q 4.011987,0 4.011987,2.674658 v 11.367298 h -4.011987 v -1.337329 q -0.668665,1.337329 -2.674658,1.337329 h -5.349317 q -4.011987,0 -4.011987,-2.674658 v -3.343323 q 0,-2.674658 4.011987,-2.674658 z m 0,2.005993 q -0.468065,1.337329 -2.674658,1.337329 h -4.680652 q -0.668665,0 -0.668665,0.668665 v 1.337329 h 8.023975 z m 10.029969,6.686646 H 59.493708 V 8.8583033 q 0,-2.6746582 4.011987,-2.6746582 v 6.0179809 h 8.023975 q 4.011987,0 4.011987,2.674658 v 8.69264 q 0,2.674658 -4.011987,2.674658 h -5.349317 q -2.005993,0 -2.674658,-1.337329 z m 7.35531,-3.343323 q 0.668665,0 0.668665,-0.668665 v -6.017981 q 0,-0.668664 -0.668665,-0.668664 h -4.680652 q -2.206593,0 -2.674658,-1.337329 v 8.692639 z"
           id="text3"
           style="font-size:27.3885px;line-height:1.25;font-family:Cyberverse;-inkscape-font-specification:'Cyberverse, Normal';stroke-width:0.285297"
           transform="scale(0.94860615,1.0541783)"
           aria-label="Lab" />
        <path
           style="font-size:13.0773px;line-height:1.25;font-family:headplane;-inkscape-font-specification:'headplane, Normal';stroke-width:0.224591"
           d="m 26.207076,32.998017 -0.01308,0.01308 h -0.09154 q -0.156928,0.02615 -1.072339,0 H 22.02234 v 1.006952 h 5.060915 q -0.104618,0.549246 -0.48386,0.980797 -0.523092,0.614633 -1.360039,0.575401 l -2.824697,0.01308 H 22.02234 v 1.020029 l 2.981624,-0.01308 2.589306,-0.01308 q -0.104619,0.549246 -0.48386,0.980797 -0.523092,0.614633 -1.36004,0.614633 h -3.72703 q -1.569276,0 -1.569276,-1.569276 v -3.58318 q 0,-1.582353 1.530044,-1.582353 h 5.636316 q -0.104618,0.549246 -0.48386,0.980797 -0.379241,0.444628 -0.928488,0.575401 z m 13.809642,-1.556198 q 0.915411,0 1.543121,0.614633 0.640788,0.601555 0.640788,1.516966 v 2.47161 q 0,0.915411 -0.640788,1.530044 -0.62771,0.601556 -1.543121,0.601556 h -5.191689 v -4.590132 h 1.569276 v 3.020856 h 3.622413 q 0.601555,0 0.601555,-0.562324 v -2.47161 q 0,-0.562323 -0.601555,-0.562323 h -3.269326 q -1.503889,0 -1.922363,-1.569276 z m 16.77818,5.165533 q 0,1.569276 -1.543121,1.569276 h -3.661644 q -0.915411,0 -1.556199,-0.601556 -0.640787,-0.614633 -0.640787,-1.530044 v -2.47161 q 0,-0.915411 0.640787,-1.516966 0.640788,-0.614633 1.556199,-0.614633 h 4.74706 q 0,1.569276 -1.713126,1.569276 h -3.033934 q -0.62771,0 -0.62771,0.562323 v 2.47161 q 0,0.562324 0.62771,0.562324 h 3.635489 v -1.020029 h -0.941565 q -1.399271,0 -1.399271,-1.569276 h 2.327759 q 1.582353,0 1.582353,1.45158 z m 12.946518,-3.609335 -0.01308,0.01308 h -0.09154 q -0.156928,0.02615 -1.072339,0 H 65.55668 v 1.006952 h 5.060915 q -0.104618,0.549246 -0.48386,0.980797 -0.523092,0.614633 -1.360039,0.575401 l -2.824697,0.01308 H 65.55668 v 1.020029 l 2.981624,-0.01308 2.589306,-0.01308 q -0.104619,0.549246 -0.48386,0.980797 -0.523092,0.614633 -1.36004,0.614633 h -3.72703 q -1.569276,0 -1.569276,-1.569276 v -3.58318 q 0,-1.582353 1.530044,-1.582353 h 5.636316 q -0.104618,0.549246 -0.48386,0.980797 -0.379241,0.444628 -0.928488,0.575401 z"
           id="text2"
           aria-label="e d g e" />
        <path
           style="font-size:38.1976px;line-height:1.25;font-family:Cyberverse;-inkscape-font-specification:'Cyberverse, Normal';stroke-width:0.288711"
           d="m 9.9826008,31.678352 q 0.8763112,0 0.8763112,-1.007904 V 24.62302 H -3.1620641 q -5.2578661,0 -5.2578661,-4.031618 V 6.4807384 q 5.2578661,0 5.2578661,4.0316186 v 7.055333 q 0,1.007904 0.876311,1.007904 H 9.9826008 q 0.8763112,0 0.8763112,-1.007904 V 6.4807384 h 5.257867 V 32.686257 q 0,4.031618 -5.257867,4.031618 H -3.1620641 v -1.007904 q 0,-4.031619 5.2578662,-4.031619 z"
           id="text5"
           aria-label="Y" />
      </g>
    </g>
    <text
       xml:space="preserve"
       transform="scale(0.26458333)"
       id="text6"
       style="font-size:39.9999px;line-height:1.25;font-family:Chicago;-inkscape-font-specification:'Chicago, Normal';white-space:pre;shape-inside:url(#rect6);display:inline" />
  </g>
</svg>
